<?xml version="1.0" encoding="UTF-8"?>
<svg xmlns="http://www.w3.org/2000/svg" xmlns:xlink="http://www.w3.org/1999/xlink" viewBox="0 0 50 50" width="50px" height="50px">
<g id="surface20417896">
<path style=" stroke:none;fill-rule:nonzero;fill:rgb(100%,100%,100%);fill-opacity:1;" d="M 6 5 C 3.800781 5 2 6.800781 2 9 L 2 41 C 2 43.199219 3.800781 45 6 45 L 44 45 C 46.199219 45 48 43.199219 48 41 L 48 9 C 48 6.800781 46.199219 5 44 5 Z M 6 7 L 44 7 C 45.117188 7 46 7.882812 46 9 L 46 41 C 46 42.117188 45.117188 43 44 43 L 6 43 C 4.882812 43 4 42.117188 4 41 L 4 9 C 4 7.882812 4.882812 7 6 7 Z M 6.8125 9 C 6.335938 9.089844 5.992188 9.511719 6 10 L 6 40 C 6 40.550781 6.449219 41 7 41 L 43 41 C 43.03125 41 43.0625 41 43.09375 41 C 43.609375 40.953125 44.003906 40.519531 44 40 L 44 10 C 44 9.449219 43.550781 9 43 9 L 7 9 C 6.96875 9 6.9375 9 6.90625 9 C 6.875 9 6.84375 9 6.8125 9 Z M 8 11 L 42 11 L 42 39 L 38 39 L 38 37 L 29 37 L 29 39 L 8 39 Z M 25 17 C 22.800781 17 21 18.800781 21 21 C 21 23.199219 22.800781 25 25 25 C 27.199219 25 29 23.199219 29 21 C 29 18.800781 27.199219 17 25 17 Z M 25 19 C 26.117188 19 27 19.882812 27 21 C 27 22.117188 26.117188 23 25 23 C 23.882812 23 23 22.117188 23 21 C 23 19.882812 23.882812 19 25 19 Z M 17 21 C 15.355469 21 14 22.355469 14 24 C 14 25.644531 15.355469 27 17 27 C 18.644531 27 20 25.644531 20 24 C 20 22.355469 18.644531 21 17 21 Z M 33 21 C 31.355469 21 30 22.355469 30 24 C 30 25.644531 31.355469 27 33 27 C 34.644531 27 36 25.644531 36 24 C 36 22.355469 34.644531 21 33 21 Z M 17 23 C 17.5625 23 18 23.4375 18 24 C 18 24.5625 17.5625 25 17 25 C 16.4375 25 16 24.5625 16 24 C 16 23.4375 16.4375 23 17 23 Z M 33 23 C 33.5625 23 34 23.4375 34 24 C 34 24.5625 33.5625 25 33 25 C 32.4375 25 32 24.5625 32 24 C 32 23.4375 32.4375 23 33 23 Z M 25 26 C 22.273438 26 20.082031 27.261719 19.03125 28 C 18.429688 27.800781 17.746094 27.65625 17 27.65625 C 14.292969 27.65625 12.34375 29.4375 12.34375 29.4375 L 12 29.75 L 12 33 L 38 33 L 38 29.75 L 37.65625 29.4375 C 37.65625 29.4375 35.707031 27.65625 33 27.65625 C 32.253906 27.65625 31.570312 27.800781 30.96875 28 C 29.917969 27.261719 27.726562 26 25 26 Z M 25 28 C 27.613281 28 29.550781 29.457031 30 29.8125 L 30 31 L 20 31 L 20 29.8125 C 20.449219 29.457031 22.386719 28 25 28 Z M 17 29.65625 C 17.347656 29.65625 17.675781 29.730469 18 29.8125 L 18 31 L 14 31 L 14 30.71875 C 14.40625 30.417969 15.507812 29.65625 17 29.65625 Z M 33 29.65625 C 34.492188 29.65625 35.59375 30.417969 36 30.71875 L 36 31 L 32 31 L 32 29.8125 C 32.324219 29.730469 32.652344 29.65625 33 29.65625 Z M 33 29.65625 "/>
</g>
</svg>
